<?xml version="1.0" encoding="utf-8"?>
<!-- Generator: Adobe Illustrator 21.0.0, SVG Export Plug-In . SVG Version: 6.00 Build 0)  -->
<svg version="1.1" id="Layer_1" xmlns="http://www.w3.org/2000/svg" xmlns:xlink="http://www.w3.org/1999/xlink" x="0px" y="0px"
	 viewBox="0 0 595.3 550" style="enable-background:new 0 0 595.3 550;" xml:space="preserve">
<style type="text/css">
	.st0{fill:#EC3766;stroke:#EC3766;stroke-width:0.75;stroke-miterlimit:10;}
</style>
<g>
	<path class="st0" d="M480.1,322.6c-23.8,15.6-47.6,8-60.6-8.9c-19.5,24.2-51.2,22.3-68.9-0.1c-8.8,11.1-20.1,17.6-34.4,17.6
		c-14.2,0-25.7-6.4-34.4-17.7c-25.3,31.7-69.3,17.5-76.6-17.1c-3.7,0.2-7.4,0.4-11.7,0.6c-0.1,1.6-0.2,3.2-0.2,4.8
		c0,9.6,0.1,19.2-0.1,28.8c-0.1,7.1-6.1,10.8-12,7.9c-3.6-1.8-4.4-5.1-4.4-8.7c0-9.2,0-18.3,0-27.5c0-1.6,0-3.3,0-5.6
		c-2.4,0-4.5,0.1-6.5,0c-5.3-0.4-8.2-3.3-8.2-8.2c0-4.9,3-8,8.3-8.1c8-0.2,15.9-0.4,23.9,0c21.5,1.1,41.2-17.4,42.4-41
		c0.3-6.1-3-9.8-9.1-9.8c-27.2-0.1-54.4-0.1-81.6,0c-7.5,0-12.6,4.9-12.6,12.4c-0.1,39.1-0.8,78.1,0.3,117.2
		c0.8,28.6,15.1,50.4,39.1,65.7c14,8.9,22.5,21.3,25,37.7c0.3,1.8,0.4,3.6,0.4,5.4c0,18.5,0,37,0,55.4c0,5.5-2.3,8.5-6.7,9.1
		c-6,0.8-9.6-2.4-9.6-8.8c-0.1-17.4-0.1-34.9,0-52.3c0.1-14.3-5.7-24.6-18-32.4c-30.3-19.2-46.1-47.1-46.7-83
		c-0.6-37.5-0.2-75.1-0.1-112.7c0-18.3,11.9-30.1,30.2-30.2c17.3-0.1,34.6,0,51.8,0c1.6,0,3.3,0,5.3,0c0.9-22,10.6-37.6,32.2-43.7
		c13.6-3.8,30.1-2,45.1,16.1c8.9-10.8,20-17.5,34.3-17.5c14.2,0,25.4,6.3,34.5,17.5c8.9-10.8,20-17.5,34.3-17.5
		c14.4,0,25.6,6.5,34.6,17.6c6.5-8.5,14.6-14.2,24.8-16.6c26.5-6.3,51.9,13.4,52.2,40.8c0.2,21.5,0.1,43,0.1,64.4
		c0,38.6-0.1,77.2,0.1,115.8c0.1,16.9-6.2,30.8-19.2,41.3c-10.7,8.7-15.8,19.3-15.4,33.3c0.5,19.7,0.2,39.4,0.1,59
		c0,6.5-3.1,9.7-8.8,9.4c-4.3-0.2-6.9-2.6-7.5-6.9c-0.2-1.3-0.2-2.7-0.2-4c0-20.1,0.1-40.3,0-60.4c-0.1-16.7,6-30.4,19.2-40.8
		c10.8-8.5,15.7-19.4,15.4-33.3c-0.4-20.1-0.1-40.3-0.1-60.4C480.1,326.2,480.1,324.7,480.1,322.6z M290,249.1c0,12.5,0,24.9,0,37.4
		c0,2.4,0.1,4.8,0.6,7.1c2.9,12.9,14.8,21.6,27.5,20.2c13.8-1.5,24.1-12.2,24.2-25.7c0.2-25.5,0.1-51,0-76.5
		c0-15.7-11.1-27.1-26.3-27.1c-15.1,0-26,11.4-26.1,27.3C290,224.2,290,236.6,290,249.1z M411.1,249.1
		C411.1,249.1,411.1,249.1,411.1,249.1c0.1-12.3,0.1-24.6,0-36.9c0-2.7-0.1-5.4-0.7-8c-3.2-12.9-15.1-21.1-28.4-19.6
		c-13.3,1.4-23.1,12.3-23.2,26.1c-0.1,25.7-0.1,51.3,0,77c0,2.8,0.5,5.7,1.4,8.4c3.7,11.8,15.4,19.3,27.5,17.7
		c13-1.6,23-11.8,23.3-24.5C411.3,275.9,411.1,262.5,411.1,249.1z M427.6,249L427.6,249c0,12.3-0.1,24.6,0,36.9c0,3,0.2,6,1,8.9
		c3.3,12.4,15.1,20.4,27.5,19c13.9-1.6,23.8-12.3,23.9-26.4c0.2-25.5,0.2-51-0.1-76.5c0-4.1-1.2-8.4-2.9-12.1
		c-4.9-10.6-17.1-16.2-28.6-13.7c-12.5,2.7-20.6,12.2-20.8,25.3C427.4,223.1,427.6,236.1,427.6,249z M221.6,213.2
		c1.5,0,2.9,0.1,4.2,0c16-1.6,30.1,12.1,26.9,31.4c-3.1,18.9-12.3,33.5-28.5,43.8c-2,1.3-3.1,2.4-2.5,5
		c2.5,12.2,15.1,21.7,27.6,20.5c14.9-1.4,24.4-12.1,24.4-27.7c0.1-24.5,0-49,0-73.4c0-2.4-0.2-4.8-0.6-7.2
		c-2.5-13.5-16.2-23.1-29.7-20.9C229.3,187,219.8,199.3,221.6,213.2z"/>
	<path class="st0" d="M396.5,486.2c0-11.9,0-23.7,0-35.6c0-6.4,2.8-9.6,8.1-9.6c5.2,0,8.2,3.5,8.2,9.6c0,23.9,0,47.8,0,71.6
		c0,6.4-2.8,9.5-8.1,9.5c-5.4,0-8.1-3.2-8.2-9.5C396.4,510.3,396.5,498.3,396.5,486.2z"/>
	<path class="st0" d="M298.2,51.9c0-8.9,0-17.7,0-26.6c0-5.7,2.8-8.7,7.9-8.8c5.4-0.1,8.4,2.9,8.4,8.8c0.1,17.9,0.1,35.7,0,53.6
		c0,5.5-3.2,8.8-8.1,8.8c-4.7,0-8.2-3.6-8.2-8.8C298.1,70,298.2,61,298.2,51.9z"/>
	<path class="st0" d="M363.1,90.9c0.2-0.8,0.7-2.5,1.4-4.1c6.6-15.6,13.2-31.2,19.9-46.7c2.3-5.3,6.4-7.4,11-5.6
		c4.5,1.8,6.1,6.3,3.9,11.7c-6.8,16.3-13.6,32.6-20.5,48.9c-1.9,4.4-5.6,6.4-9.6,5.4C365.7,99.6,363,95.8,363.1,90.9z"/>
	<path class="st0" d="M250.8,92.8c-2.1,2.2-3.9,5-6.4,6.5c-2.9,1.6-6.2,0.9-8.5-1.9c-1.1-1.4-1.9-3-2.6-4.7
		c-6.5-15.8-13-31.6-19.5-47.4c-2-4.9-0.4-9,4.3-11c4.4-1.9,8.5-0.2,10.5,4.7c6.9,16.6,13.7,33.2,20.5,49.9c0.4,1,0.6,2,0.8,3
		C250.2,92.2,250.5,92.5,250.8,92.8z"/>
	<path class="st0" d="M147.5,80.9c2.8,1.7,5.2,2.5,6.8,4.1c12.6,12.4,25.1,25,37.6,37.6c3.8,3.8,3.8,8.7,0.3,12
		c-3.3,3.2-8,3.1-11.6-0.5c-12.7-12.6-25.3-25.2-37.9-37.9c-2.6-2.6-3.8-5.9-1.9-9C142.2,84.7,145,83.1,147.5,80.9z"/>
	<path class="st0" d="M425.4,138c-2.5-2.2-5.6-3.7-6.6-6c-0.9-2.2,0.1-5.3,0.6-8c0.2-0.9,1.3-1.6,2.1-2.3c12-12,24-24,36-36
		c4.5-4.5,8.9-4.9,12.6-1.3c3.7,3.6,3.4,8.2-1,12.6c-12.1,12.1-24.2,24.3-36.4,36.3C430.9,135.1,428.4,136.1,425.4,138z"/>
	<path class="st0" d="M255.6,532.5c-5.7,0-10.8,0-16.2,0c0-5.8,0-11.4,0-17.8c4.8,0,9.5-0.1,14.2,0.1c0.7,0,1.8,1.5,1.8,2.4
		C255.6,522.1,255.6,527,255.6,532.5z"/>
	<path class="st0" d="M255.3,486.5c-5.4,0-10.5,0-15.9,0c0-5.9,0-11.5,0-17.4c5.4,0,10.5,0,15.9,0
		C255.3,475,255.3,480.6,255.3,486.5z"/>
	<path class="st0" d="M255.6,424.1c0,5.2,0.1,10-0.1,14.8c-0.1,1-1.5,2.7-2.4,2.7c-4.5,0.3-8.9,0.1-13.7,0.1c0-6.1,0-11.7,0-17.7
		C244.6,424.1,249.8,424.1,255.6,424.1z"/>
</g>
</svg>
