<?xml version="1.0" encoding="utf-8"?>
<!-- Generator: Adobe Illustrator 21.0.0, SVG Export Plug-In . SVG Version: 6.00 Build 0)  -->
<svg version="1.1" id="Layer_1" xmlns="http://www.w3.org/2000/svg" xmlns:xlink="http://www.w3.org/1999/xlink" x="0px" y="0px"
	 viewBox="0 0 595.3 550" style="enable-background:new 0 0 595.3 550;" xml:space="preserve">
<style type="text/css">
	.st0{fill:#EC3766;stroke:#EC3766;stroke-width:0.75;stroke-miterlimit:10;}
	.st1{fill:#EC3766;}
</style>
<g>
	<path class="st0" d="M73.3,310.8c0-5.3,0-10,0-15c5.4,0,10.6,0,16.5,0c0,4.5,0.1,8.9-0.1,13.2c0,0.6-1.4,1.7-2.2,1.7
		C82.9,310.9,78.3,310.8,73.3,310.8z"/>
	<path class="st0" d="M115.9,310.6c0-5,0-9.8,0-14.8c5.4,0,10.7,0,16.2,0c0,5,0,9.8,0,14.8C126.7,310.6,121.4,310.6,115.9,310.6z"/>
	<path class="st0" d="M174,310.9c-4.9,0-9.3,0.1-13.8-0.1c-0.9,0-2.5-1.4-2.5-2.2c-0.3-4.1-0.1-8.3-0.1-12.7c5.6,0,10.9,0,16.4,0
		C174,300.7,174,305.5,174,310.9z"/>
	<path class="st0" d="M31.9,346.9c0-5.3,0-10,0-15c5.4,0,10.6,0,16.5,0c0,4.5,0.1,8.9-0.1,13.2c0,0.6-1.4,1.7-2.2,1.7
		C41.6,347,37,346.9,31.9,346.9z"/>
	<path class="st0" d="M74.6,346.7c0-5,0-9.8,0-14.8c5.4,0,10.7,0,16.2,0c0,5,0,9.8,0,14.8C85.3,346.7,80.1,346.7,74.6,346.7z"/>
	<path class="st0" d="M132.6,346.9c-4.9,0-9.3,0.1-13.8-0.1c-0.9,0-2.5-1.4-2.5-2.2c-0.3-4.1-0.1-8.3-0.1-12.7c5.6,0,10.9,0,16.4,0
		C132.6,336.8,132.6,341.6,132.6,346.9z"/>
	<path class="st1" d="M466.2,287.4c-0.8-1.4-1.5-2.8-2.3-4.4c26.7-16.8,41.6-41.1,45.9-72.2c6.7,0,13,0,19.3,0
		c7.8,0,13-4.4,12.9-10.8c-0.1-6.3-5.1-10.4-12.7-10.4c-6.6,0-13.2,0-19.4,0c-1.7-7.3-3.3-14-4.9-21.2c1.7,0,3.3,0,4.8,0
		c13.7,0,27.4,0,41.1,0c7.1,0,12.2-4.4,12.3-10.5c0.1-6.3-5-10.7-12.4-10.7c-17.5,0-35.1-0.1-52.6,0.1c-3.2,0-4.9-1.1-6.8-3.5
		c-22.6-29.1-52.2-42.6-88.9-38.1c-68.9,8.4-107.3,87.8-66.8,146.3c1.7,2.5,1.5,4.2,0.1,6.6c-16.8,29.2-33.5,58.5-50.3,87.7
		c-0.6,1.1-1.4,2.2-2.2,3.4c-0.7-0.9-1.3-1.6-1.8-2.3c-13.4-19.4-26.9-38.7-40.2-58.2c-1.2-1.8-1.7-4.3-1.7-6.5
		c-0.1-46.4-0.1-92.8-0.1-139.2c0-1,0-2.1-0.1-3.1c-0.6-4.2-4.1-8.1-8.1-9.1c-4.2-1.1-9,0.4-11.1,4.4c-1.5,2.9-3.8,3.7-6.5,4.4
		c-28.5,7.4-56.9,14.9-85.4,22.4c-7,1.9-10.7,5.8-10.6,11.2c0.1,5.3,3.7,8.9,10.5,10.7c28.7,7.6,57.5,15.2,86.2,22.6
		c3,0.8,3.9,1.9,3.9,5c-0.1,23.7,0,47.4-0.2,71.2c0,2.2-0.8,4.6-2,6.5c-5.4,8.1-11.1,15.9-16.5,24L150,385
		c-16.6,23.8-33.2,47.6-49.7,71.4c-0.8,1.2-1.7,2.4-2.4,3.7c-2.6,4.9-1.2,11.2,3.3,14.1c4.4,2.9,10.4,2.1,14-2
		c1-1.1,1.8-2.4,2.6-3.6c35.9-51.5,71.7-103,107.6-154.4c1.1-1.6,2.3-3.2,3.7-5.1c1.5,2,2.5,3.4,3.5,4.9
		c27.1,39.2,54.3,78.5,81.4,117.7c0.9,1.3,1.8,2.7,2.9,3.9c3.1,3.2,8.3,4.2,12.2,2.3c4.1-2,6.2-5.6,5.8-10.1
		c-0.2-2.5-1.4-5.1-2.8-7.2c-10.9-16.1-22.1-32-33.1-48c-0.8-1.2-1.9-3.3-1.4-4.2c4-7.6,8.4-15,12.9-22.9
		c5.4,6.6,10.3,12.7,15.3,18.7c6.3,7.7,14.4,7.3,19.9-1c9.6-14.6,19.3-29.3,28.9-43.9c0.8-1.2,1.6-2.3,2.7-3.8
		c5.8,9.2,11.3,18.1,16.9,26.9c4.7,7.4,12.3,8.2,18.5,2c4-4,7.8-8.2,11.9-12.5c8.8,9.6,16.8,18.4,24.9,27.2
		c5.7,6.1,13.1,5.8,18.1-0.8c2.4-3.1,4.7-6.3,7.3-9.9c1.1,1.9,1.9,3.2,2.7,4.6c21.6,38.7,43.1,77.4,64.7,116.1
		c3.6,6.5,10,8.8,15.5,5.8c5.4-3,6.7-9.8,3.1-16.2C529.4,401.5,497.8,344.5,466.2,287.4z M218.3,186.3c-15.8-4.1-31.3-8.2-46.8-12.3
		c0-0.3,0-0.6,0.1-0.9c15.5-4.1,31-8.2,46.7-12.4C218.3,169.4,218.3,177.6,218.3,186.3z M349.4,164.7c16-29.3,49.1-44.2,82.2-36.9
		c29.4,6.5,54.5,34,56.3,61.8c-6.5,0-12.9,0-19.4,0c-6.7,0-11.7,4.6-11.8,10.6c0,5.9,5.1,10.6,11.8,10.6c6.2,0.1,12.4,0.1,18.6,0.1
		c0.3,0,0.5,0.2,1.3,0.4c-3.7,22.7-15.1,40.2-34.8,52.8c-1-1.7-1.8-3-2.6-4.4c-15.6-27.9-31.2-55.8-46.7-83.7
		c-2.4-4.4-5.3-7.8-10.8-7.7c-5.3,0-8.1,3.3-10.5,7.5C372,195,361,214.1,350,233.3C338.8,219.1,336.2,188.7,349.4,164.7z M460,332.8
		c-0.8,0.8-1.5,1.8-2.5,3.2c-3.5-3.8-6.9-7.4-10.2-11c-4.3-4.7-8.6-9.3-12.9-14c-5.6-6-11.9-6.3-17.6-0.5c-3.4,3.4-6.7,7-10.4,11
		c-1.2-1.8-2.1-2.9-2.9-4.1c-5.5-8.7-10.8-17.6-16.3-26.3c-5.1-8-13.8-8.1-19-0.3c-10.1,15.2-20.2,30.4-30.3,45.7
		c-1,1.5-2,2.9-3.2,4.8c-4.3-5.2-8.4-10.2-12.7-15.6c23.7-41.5,47.4-83,71.4-125.1c1.2,1.9,2.1,3.4,2.9,4.9
		c21.5,38.7,42.9,77.5,64.6,116.2C463.2,326,463.7,329.3,460,332.8z"/>
</g>
</svg>
