<?xml version="1.0" encoding="utf-8"?>
<!-- Generator: Adobe Illustrator 21.0.0, SVG Export Plug-In . SVG Version: 6.00 Build 0)  -->
<svg version="1.1" id="Layer_1" xmlns="http://www.w3.org/2000/svg" xmlns:xlink="http://www.w3.org/1999/xlink" x="0px" y="0px"
	 viewBox="0 0 595.3 550" style="enable-background:new 0 0 595.3 550;" xml:space="preserve">
<style type="text/css">
	.st0{fill:#EC3766;}
</style>
<path class="st0" d="M285.4,401.6c-18.1,0-35.9,0-53.6,0c-33.3-0.1-60.6-22.2-67.5-54.7c-1-4.9-1.4-9.9-1.4-14.9
	c-0.2-17.6-0.1-35.2-0.1-53.4c-2,0-3.8,0-5.5,0c-33.9,0-67.7,0-101.6,0c-10.8,0-15.9-5.1-15.9-15.9c0-71.4,0-142.7,0-214.1
	c0-10.8,5.1-16,15.8-16c71.5,0,143,0,214.6,0c10.4,0,15.6,5.2,15.6,15.7c0,33.7,0,67.4,0,101.1c0,1.8,0,3.6,0,6.2c1.7,0,3.3,0,4.9,0
	c16.4,0,32.8,0,49.2,0c38.6,0.1,68.7,30.2,68.9,68.8c0.1,16.2,0,32.5,0,48.7c0,1.6,0,3.3,0,5.2c40.7,1.3,73.9,17.5,98.5,49.8
	c18.2,24,26.3,51.5,24.2,81.6C527.2,473,476.1,521.9,414,524.5C340.5,527.5,284.3,466.9,285.4,401.6z M381.4,281.5c0-1.3,0-2.7,0-4
	c0-17.6,0-35.2,0-52.8c-0.1-23.7-18.2-41.7-41.9-41.7c-35.7,0-71.3-0.1-107,0c-24.6,0-42.4,17.9-42.4,42.6c0,35.5,0,71,0,106.5
	c0,24,18,42.1,42,42.1c17.5,0,34.9,0,52.4,0c1.5,0,3,0,4.3,0C302.1,325.7,332.7,295.1,381.4,281.5z M408.8,305.9
	c-52.5,0-95.7,43.2-95.7,95.6c0,52.4,43.2,95.7,95.6,95.7c52.4,0,95.7-43.2,95.7-95.7C504.4,349.2,461.2,305.9,408.8,305.9z
	 M67.4,60.1c0,63.9,0,127.4,0,190.8c31.9,0,63.6,0,95.4,0c0-3.1-0.1-5.8,0-8.5c0.4-10.6-0.4-21.4,1.5-31.7
	c6.2-32.7,34.1-54.9,67.5-55.1c8.8,0,17.5,0,26.4,0c0-32.1,0-63.7,0-95.5C194.5,60.1,131.1,60.1,67.4,60.1z"/>
</svg>
