<?xml version="1.0" encoding="utf-8"?>
<!-- Generator: Adobe Illustrator 21.0.0, SVG Export Plug-In . SVG Version: 6.00 Build 0)  -->
<svg version="1.1" id="Layer_1" xmlns="http://www.w3.org/2000/svg" xmlns:xlink="http://www.w3.org/1999/xlink" x="0px" y="0px"
	 viewBox="0 0 595.3 550" style="enable-background:new 0 0 595.3 550;" xml:space="preserve">
<style type="text/css">
	.st0{fill:#EC3766;}
</style>
<g>
	<path class="st0" d="M134.4,293.8c5.3-1.3,10.1-3,15.1-3.5c9.5-0.8,18,2.4,25.6,8.2c23.1,17.6,46.2,35.2,69.5,52.5
		c14.3,10.6,26.3,23.1,30.7,40.8c2.4,9.6,4.2,19.7,4.3,29.6c0.5,34.6,0.2,69.3,0.2,103.9c0,7.5-5.2,13-11.9,13
		c-6.7,0-11.7-5.5-11.7-13.1c0-28.9,0.4-57.8-0.2-86.7c-0.2-12.6-2.1-25.1-3.7-37.6c-1.4-11.1-7.5-19.9-16.4-26.5
		c-16.8-12.5-33.9-24.8-50.7-37.4c-8.4-6.3-16.4-13.1-24.7-19.6c-8.4-6.7-15.7-5.1-20,4.7c-1.8,4.1-2.5,8.8-3.2,13.3
		c-0.2,1.1,1.4,2.7,2.5,3.8c12.5,11.6,25.1,23.1,37.7,34.7c4,3.6,5.6,8,3.9,13.3c-1.4,4.6-4.7,7.5-9.3,7.5c-3.3,0-7.5-0.9-9.9-3
		c-16.8-14.9-33.4-30.1-49.6-45.7c-2.6-2.5-4.2-7.3-4-10.9c1.1-27.7,2.7-55.4,4.2-83.1c0.4-8.4,0.9-16.7,1.3-25.1
		c0.2-4.5-3.3-8.1-8.5-9c-4.7-0.8-7.5,1.6-8.2,5.8c-1.2,6.8-2.1,13.6-2.7,20.4c-3.3,35.9-6.5,71.9-9.9,107.8
		c-0.7,7.8,1.6,14.8,6.5,20.6c5.8,6.9,12,13.5,18.7,19.4c16,14.2,32.6,27.6,48.4,41.9c8.2,7.5,15.3,16.2,22.9,24.4
		c3.2,3.5,4.2,7.6,3.7,12.3c-2,18.8-3.8,37.5-5.8,56.3c-0.7,6.7-6.4,11.7-12.6,11.3c-6.2-0.4-11.5-6.1-11-12.8
		c1.3-15.2,2.7-30.4,4.5-45.5c0.7-5.9,0.3-10.9-4.4-15.1c-14-12.6-27.8-25.4-41.8-38c-8.8-7.9-18-15.3-26.8-23.1
		C67.7,386.4,58.6,365.9,62,339c4.8-37.7,7.3-75.8,11-113.6c1.3-13.3,8.2-22.8,21.1-26.9c13.6-4.3,26.3-2.5,37,7.6
		c4.9,4.6,7.1,10.7,6.8,17.4c-1,22-2.2,43.9-3.3,65.9C134.6,290.8,134.5,292.4,134.4,293.8z"/>
	<path class="st0" d="M460.8,294.2c-0.7-13.5-1.4-26.8-2.1-40c-0.5-9.2-1.2-18.3-1.5-27.5c-0.5-17.2,10.1-28.8,27.4-30.3
		c21.4-1.8,35.5,9.6,37.6,30.9c3.2,32.5,5.9,65,8.8,97.5c0.7,7.5,1,15.1,2.2,22.5c2.4,15.5-1.9,29.2-11.7,40.8
		c-7.9,9.4-17.1,17.6-26.2,25.9c-18.3,16.9-36.8,33.6-55.4,50.2c-5.1,4.6-6.1,9.6-5.2,16.2c1.9,14.3,3.1,28.7,4.5,43.1
		c0.7,7.8-3.9,13.9-10.7,14.6c-6.7,0.6-12.2-4.7-13-12.5c-1.9-18.1-3.6-36.2-5.6-54.3c-0.6-5.5,0.9-9.8,4.4-14
		c14.2-16.8,31.4-30.3,47.9-44.6c10.5-9.1,20.8-18.6,31.1-28c12.8-11.7,18.4-25.2,16.1-43.4c-4.7-37.4-7.4-75.1-10.9-112.7
		c-0.1-1.3-0.2-2.6-0.6-3.9c-1.4-5.5-4.1-7.7-8.4-7c-5.5,0.9-9.1,4.7-8.8,9.8c1.8,33.9,3.4,67.9,5.6,101.8
		c0.6,8.8-1.4,15.2-8.3,21.1c-15,13-29.4,26.8-44,40.2c-6.3,5.7-13.6,5.9-18.3,0.7c-4.8-5.2-3.8-12.5,2.4-18.2
		c12.5-11.4,24.8-23,37.4-34.2c3.7-3.3,4.2-6.7,2.4-10.9c-0.6-1.5-1.3-3-2.1-4.4c-7.1-12.1-12.8-12.9-23.9-4.3
		c-20.9,16.1-41.4,32.9-63.4,47.5c-19.3,12.8-28.3,29.9-28.8,52.2c-0.6,24.8-0.7,49.5-1,74.3c-0.1,10.7,0,21.3,0,32
		c0,7.5-5.1,13-11.8,13.1c-6.7,0-11.8-5.5-11.8-13c0-34.8-0.3-69.6,0.1-104.4c0.2-20.1,4.2-39.4,18.5-54.7c6-6.4,13-12,20-17.4
		c21.7-16.7,43.7-33.1,65.4-49.7c12.1-9.2,24.9-11.9,39.1-5.5C459.1,293.9,459.7,294,460.8,294.2z"/>
	<path class="st0" d="M225.6,266.6c2-3.5,3.3-7,5.6-9.5c8.9-9.3,19.9-15.4,32.1-19.4c3.2-1,4.7-2.8,5.7-5.8
		c3.9-11.6,9.7-22.2,18.4-31.1c7-7.2,13.4-7.2,20.3-0.1c8.8,9,14.7,19.7,18.6,31.5c1,2.9,2.5,4.5,5.5,5.5c12,4,22.8,10,31.9,18.9
		c6.5,6.4,6.5,13.3,0,19.7c-9.1,8.9-19.9,14.9-31.9,18.9c-2.9,1-4.5,2.5-5.5,5.5c-3.5,10.7-8.7,20.5-16.2,29
		c-9.1,10.3-16,10.2-25.1-0.2c-7.3-8.4-12.5-18-16-28.6c-1-3.2-2.7-4.7-5.8-5.8c-12-4-22.9-10-31.7-19.1
		C229.1,273.6,227.7,270.1,225.6,266.6z M258.1,265.4c0.1,0.8,0.1,1.6,0.2,2.3c6.2,2.5,12.2,5.6,18.6,7.4c6.4,1.8,9.9,5.4,11.8,11.7
		c2,6.6,5.2,12.8,7.8,19.1c0.7,0,1.5-0.1,2.2-0.1c2.6-6.3,5.8-12.4,7.7-18.8c1.9-6.6,5.6-10.1,12.1-12c6.3-1.8,12.3-4.9,18.4-7.5
		c0-0.7,0.1-1.3,0.1-2c-6.2-2.7-12.2-6-18.7-7.8c-6.6-1.9-10.1-5.5-12.1-12c-1.9-6.4-5.1-12.4-7.8-18.6c-0.7,0-1.5,0.1-2.2,0.1
		c-2.7,6.4-5.7,12.7-7.8,19.3c-1.9,5.9-5.2,9.2-11.2,11.1C270.8,259.6,264.6,262.8,258.1,265.4z"/>
	<path class="st0" d="M297.6,149.4c-3.5-2.1-7-3.4-9.4-5.8c-7.1-6.8-11.7-15.3-15-24.5c-1-3-2.9-4.1-5.5-5.5
		c-7.8-4.1-15.8-8.1-22.7-13.4c-8.8-6.7-9-15-0.3-21.7c7.2-5.5,15.7-9.3,23.4-14.1c1.9-1.2,4-2.8,4.8-4.8c3.7-9.2,8.2-17.9,15.3-25
		c6.2-6.2,12.7-6.2,18.9,0c7.1,7.1,11.5,15.8,15.3,25c0.8,1.9,2.9,3.6,4.7,4.8c7.9,4.9,16.5,8.8,23.8,14.4c8.2,6.3,8,14.6-0.3,21
		c-6.9,5.3-14.8,9.5-22.6,13.5c-2.9,1.5-5,2.8-6.1,6.1c-3.2,9-7.8,17.4-14.8,24.1C304.6,145.9,301.1,147.3,297.6,149.4z
		 M296.7,116.3c0.6,0,1.1,0.1,1.7,0.1c1.4-3.8,3.2-7.4,4.1-11.3c1.5-6.1,5.1-9.5,11.1-11.1c3.9-1,7.6-2.7,11.4-4
		c0-0.4,0.1-0.9,0.1-1.3c-4.1-1.5-8.1-3.3-12.2-4.4c-5.5-1.5-8.6-4.8-10.2-10.2c-1.2-4.1-2.8-8.1-4.3-12.2c-0.5,0-1,0-1.5,0
		c-1.4,3.8-3.1,7.4-4.1,11.3c-1.5,6-4.8,9.7-11,11.2c-4,1-7.8,2.8-11.7,4.3c0,0.4,0.1,0.9,0.1,1.3c4.1,1.4,8.2,3.1,12.5,4.3
		c5.3,1.5,8.3,4.7,9.8,9.9C293.7,108.4,295.3,112.3,296.7,116.3z"/>
	<path class="st0" d="M398,220.3c-3.5-2.1-7.4-3.2-9.3-5.8c-5.1-6.9-10.1-14.1-13.8-21.9c-2.2-4.7-4.9-7.1-9.5-9.3
		c-7.3-3.5-14.4-7.8-20.7-12.9c-7.8-6.2-8-14.4-0.2-20.4c7.4-5.7,16.1-9.8,24.2-14.7c1.9-1.2,3.9-2.9,4.7-4.8
		c3.7-9.2,8.2-17.9,15.3-25c6.2-6.2,12.7-6.1,18.9,0.1c7,7,11.6,15.4,14.9,24.6c1.1,2.9,2.7,4.4,5.5,5.4c9.2,3.3,17.6,8,24.6,15
		c6,6,6,13,0,19c-7.1,7-15.8,11.6-25,15.3c-1.9,0.8-4,2.8-4.8,4.8c-3.7,9.2-8.1,18-15.4,24.9C405,216.9,401.6,218.2,398,220.3z
		 M370.9,159.5c0,0.5-0.1,1-0.1,1.5c4,1.4,7.9,3,12,4.2c5.6,1.5,8.9,4.9,10.4,10.6c1,4,2.7,7.8,4.1,11.7c0.5,0,1,0,1.5,0
		c1.4-3.9,3.1-7.8,4.1-11.8c1.5-5.7,4.9-9,10.5-10.5c4-1.1,7.9-2.7,11.9-4.1c0-0.5,0.1-0.9,0.1-1.4c-4.1-1.5-8-3.3-12.2-4.4
		c-5.5-1.5-8.6-4.8-10.2-10.2c-1.2-4.1-2.8-8.1-4.3-12.2c-0.5,0-1,0-1.5,0c-1.4,3.8-3.1,7.4-4.1,11.3c-1.5,6-4.8,9.7-11,11.2
		C378.4,156.3,374.7,158.1,370.9,159.5z"/>
	<path class="st0" d="M197.3,220.3c-3.5-2-7.5-3.1-9.4-5.7c-5.1-6.7-10-13.8-13.7-21.3c-2.4-4.9-5-7.8-10-10.1
		c-7.3-3.4-14.4-7.9-20.7-12.9c-7.5-6-7.7-14.2-0.2-20c7.4-5.7,16.1-9.8,24.1-14.8c2-1.3,4.2-3.1,5-5.1c3.8-9.2,8.3-17.8,15.4-24.9
		c6-5.9,12.5-5.9,18.5,0.1c7,6.9,11.7,15.4,15,24.6c1.1,3.1,3.1,4.3,5.8,5.8c8.3,4.5,16.7,9.1,24.1,14.8c6.9,5.3,6.4,13,0.1,19.1
		c-7.1,6.9-15.5,11.3-24.6,15c-2.1,0.8-4.2,3-5,5.1c-3.7,9-8,17.7-15.1,24.5C204.2,216.7,200.8,218.1,197.3,220.3z M198,133
		c-0.5,0-1.1-0.1-1.6-0.1c-1.4,3.6-3.2,7.1-4,10.8c-1.5,6.5-5,10.3-11.6,11.8c-3.8,0.9-7.5,2.8-11.2,4.2c4.1,2.7,8.1,4.3,12.1,5.4
		c5.6,1.5,8.9,4.9,10.4,10.6c1,4,2.7,7.8,4.1,11.7c0.5,0,1,0,1.5-0.1c1.4-3.8,3.2-7.4,4.1-11.3c1.5-6.1,5.1-9.5,11.1-11.1
		c3.9-1,7.6-2.7,11.4-4c0-0.5,0.1-0.9,0.1-1.4c-4.1-1.5-8-3.3-12.2-4.4c-5.5-1.5-8.6-4.8-10.2-10.2C201,140.9,199.4,137,198,133z"/>
</g>
</svg>
