<?xml version="1.0" encoding="utf-8"?>
<!-- Generator: Adobe Illustrator 21.0.0, SVG Export Plug-In . SVG Version: 6.00 Build 0)  -->
<svg version="1.1" id="Layer_1" xmlns="http://www.w3.org/2000/svg" xmlns:xlink="http://www.w3.org/1999/xlink" x="0px" y="0px"
	 viewBox="0 0 595.3 550" style="enable-background:new 0 0 595.3 550;" xml:space="preserve">
<style type="text/css">
	.st0{fill:#EC3766;}
</style>
<g>
	<path class="st0" d="M194.3,445.5c-1.6,1.1-3,2.1-4.4,3.2c-24.2,17.6-48.4,35.2-72.7,52.8c-1,0.7-1.9,1.5-3,2.1
		c-4.9,2.8-10.6,0.2-11.6-5.4c-0.3-1.6-0.2-3.3-0.2-4.9c0-79.8,0-159.6,0-239.4c0-3-0.8-5.3-2.7-7.7
		C49.7,184.6,67.4,86.9,147.4,53.8c53.7-22.2,116.9,0.4,146.1,52.1c25.2,44.6,20.4,100.6-12.2,140.5c-1.9,2.3-2.5,4.5-2.5,7.4
		c0.1,79.5,0,159.1,0,238.6c0,1.2,0,2.5,0,3.7c0.1,3.6-1.2,6.4-4.6,8c-3.2,1.4-6,0.6-8.7-1.5c-10.6-8.5-21.3-17-31.9-25.5
		C220.6,466.5,207.5,456,194.3,445.5z M294.1,167.5c0-21.6-5.4-40.6-16.4-58.1C254.6,72.7,210,53.3,169.7,62.9
		C88.3,82.2,65.2,175.2,108,231.8c25.2,33.3,59.3,48.7,101,40.8C259.9,263,294.1,219.7,294.1,167.5z M118.2,264.9
		c0,72.3,0,144.4,0,216.8c1.5-1.1,2.6-1.8,3.7-2.6c21.9-15.9,43.8-31.9,65.7-47.8c5.8-4.2,8.2-4.2,13.7,0.2
		c19.3,15.5,38.7,31,58.1,46.4c1.1,0.9,2.3,1.7,3.6,2.6c0-72.1,0-143.7,0-215.7c-4.1,2.8-7.6,5.5-11.5,7.7c-2.8,1.6-3.5,3.5-3.5,6.5
		c0.1,46.4,0.1,92.9,0.1,139.3c0,3.6-0.5,6.9-4.1,8.7c-3.5,1.8-6.5,0.6-9.5-1.4c-12.4-8.4-24.9-16.6-37.3-25
		c-2.2-1.5-3.8-1.6-6.2-0.2c-14.9,8.7-30,17.2-45,25.7c-7.2,4.1-12.7,0.8-12.8-7.5c0-9.9,0-19.9,0-29.8c0-36.8,0-73.6-0.1-110.3
		c0-1.6-0.7-3.9-1.9-4.8C127.2,270.7,122.8,268,118.2,264.9z M232.6,282.2c-28.1,10.6-55.9,10.6-83.7,0.1c0,41.6,0,82.8,0,124.5
		c1.7-0.9,2.9-1.5,4-2.1c11.9-6.8,23.9-13.5,35.7-20.5c4.3-2.6,7.9-2.4,12,0.5c9.3,6.4,18.7,12.6,28.1,18.8c1.1,0.7,2.2,1.3,3.7,2.2
		C232.6,364.5,232.6,323.7,232.6,282.2z"/>
	<path class="st0" d="M358.9,244.4c0-1.5,0-2.9,0-4.4c0-47.1,0-94.3,0-141.4c0-12.3,7.5-22,19.2-25.3c16.2-4.5,35.2,9.7,35.3,26.6
		c0.1,15.9,0,31.9,0,47.8c0,1.5,0,2.9,0,4.2c5.4-0.5,10.3-1.3,15.3-1.3c9.2,0,17,3.2,21.8,11.8c0.5,0.8,2.4,1.1,3.7,1
		c4.6-0.1,9.3-0.9,13.8-0.5c8.5,0.7,15.3,4.6,19,12.1c6.7,0,13.3-0.7,19.6,0.2c4.2,0.6,8.2,3.3,12,5.7c3.7,2.3,4.9,6.3,4.8,10.7
		c-0.1,28.1-0.1,56.1-0.2,84.2c0,27,0.3,53.9-0.2,80.9c-0.3,16.2-1.9,32.3-6.5,48c-0.2,0.8-0.4,1.6-0.4,2.3c0.5,4,1.4,8,1.4,11.9
		c0.2,18.9,0.1,37.9,0.1,56.8c0,8-2.3,10.3-10.1,10.3c-50.1,0-100.3,0-150.4,0c-7.6,0-9.9-2.4-9.9-10.1c0-20.7,0-41.4,0.1-62.1
		c0-2.2,1-4.4,1.3-6.7c0.2-1.5,0.2-3.2-0.2-4.7c-10-35.2-20.3-70.3-29.8-105.6c-4-14.8-6.5-30-8.9-45.2c-0.9-5.6-0.1-11.8,1.3-17.3
		c1.1-4.3,3.7-8.6,6.7-11.8c7.9-8.3,16.8-8.3,25-0.2c3.2,3.1,5.9,6.8,8.5,10.4c2.6,3.7,4.7,7.6,7,11.5
		C358.5,244.4,358.7,244.4,358.9,244.4z M445,290.9c-4.6,4.2-8.5,8.7-13.3,11.9c-7,4.8-15,3.9-20.9-2.1
		c-7.7-7.8-12.6-17.3-12.6-28.4c-0.2-56.8-0.1-113.6-0.1-170.4c0-6.5-3.7-11.6-9.7-13.5c-5.9-1.8-11.3,0.2-13.2,5.4
		c-0.8,2.1-0.8,4.5-0.8,6.8c0,60.3,0,120.7,0,181c0,5.9-2.1,9-6.5,9.8c-4.2,0.7-7-1.6-9.1-6.9c-3.8-9.3-7.4-18.7-11.8-27.8
		c-3.6-7.4-8-14.5-12.6-21.4c-3.1-4.6-5.9-4.3-7.5,1.1c-1.4,5-2.1,10.5-1.7,15.6c0.7,8.2,2,16.5,4.2,24.5
		c8.7,32,17.9,63.9,26.8,95.8c2.9,10.4,5.8,20.9,8.7,31.1c0.5,0.2,0.6,0.3,0.8,0.3c44.4,0,88.8,0.1,133.2,0c1.1,0,2.9-1.5,3.2-2.6
		c1.3-5.3,2.6-10.6,3.3-15.9c3.3-27.9,3.5-56,3.4-84c0-0.9-0.2-1.8-0.3-3c-11.9,5.1-21.8,1.9-30.3-6.5
		C465.2,301.3,457.7,300.9,445,290.9z M362.9,470.6c46.6,0,93,0,139.4,0c0-17.1,0-34,0-50.8c-46.6,0-93,0-139.4,0
		C362.9,436.9,362.9,453.7,362.9,470.6z M436.3,220.9c0-15.2,0-30.5,0-45.7c0-8.5-0.9-9.5-9.7-9.4c-2.1,0-4.4,0.3-6.4,0.9
		c-5.3,1.7-6.7,3.8-6.7,9.3c0,31.8,0,63.7,0,95.5c0,6.5,3,12,6.9,17.1c0.6,0.8,3,1.5,3.6,1c6.2-5,11.9-10.9,12.1-19.3
		C436.6,253.9,436.3,237.4,436.3,220.9z M452.1,227.4c0,14.4,0.2,28.8-0.1,43.3c-0.1,5.8,3.1,9,7.3,11.7c1.3,0.8,4,0.8,5.3,0
		c4.4-2.7,7.7-6.1,7.6-12c-0.2-27.2-0.1-54.4-0.1-81.6c0-10.2-0.9-11.1-11.2-10.8c-1.8,0.1-3.5,0.4-5.3,0.6
		c-2.6,0.4-3.7,1.8-3.7,4.7C452.2,198.1,452.1,212.7,452.1,227.4z M488,235.8c0,13.2,0,26.4,0,39.6c0,5.5,2.3,8.5,7.6,9.8
		c4.8,1.2,12.4-3.4,12.4-7.8c0.1-27.7,0.1-55.5-0.1-83.2c0-1.1-1.5-3.2-2.5-3.3c-4.7-0.4-9.4-0.4-14.1-0.3c-2.7,0-3.4,1.8-3.4,4.4
		C488,208.6,488,222.2,488,235.8z"/>
	<path class="st0" d="M130.6,231.4c2.1-11.4,4.2-23.3,6.4-35.3c0.8-4.5,1.5-9.1,2.6-13.6c0.6-2.5-0.1-4-1.8-5.7
		c-11-11.2-21.9-22.4-32.8-33.6c-2.5-2.6-4.3-5.3-3-9.1c1.4-3.9,4.5-5,8.3-5.5c15.1-1.9,30.2-4,45.3-5.9c2.7-0.3,4.2-1.5,5.4-4
		c6.8-13.8,13.7-27.5,20.6-41.2c1.7-3.5,3.7-6.5,8-6.5c4.6,0,6.5,3.2,8.2,6.9c6.4,14,13,27.9,19.3,41.8c1.1,2.5,2.7,3.6,5.4,4
		c15.3,2.4,30.6,4.9,45.9,7.4c3.3,0.5,6,1.9,7.1,5.3c1.1,3.5,0,6.3-2.6,8.8c-11.4,10.9-22.7,22-34.1,32.9c-2,1.9-2.5,3.8-2.1,6.4
		c2.5,15.7,4.8,31.5,7.3,47.2c0.6,3.6,0,6.6-3.1,8.7c-3,2.1-6.1,1.5-9.2-0.2c-13.5-7.6-27.1-15-40.6-22.7c-2.6-1.5-4.5-1.4-7.1-0.1
		c-13.7,7.2-27.5,14.3-41.3,21.4C136.3,242.1,130.2,238.5,130.6,231.4z M125.5,142.1c1.5,1.6,2.4,2.6,3.3,3.6
		c8,8.2,15.9,16.4,23.9,24.6c2.6,2.6,3.8,5.4,2.9,9.2c-1.2,5.6-2.1,11.2-3.1,16.8c-1.3,7.2-2.6,14.3-4,22.2c2-1,3.2-1.5,4.4-2.2
		c9.9-5.1,19.9-10.1,29.7-15.4c3.6-1.9,6.8-1.9,10.4,0.1c8.6,5,17.3,9.7,26,14.5c2.3,1.3,4.7,2.6,7.6,4.2c-2-13.1-3.7-25.5-5.9-37.8
		c-0.9-5.1,0.8-8.3,4.2-11.9c8.5-8.8,16.5-18.1,24.7-27.2c0.5,0.9-0.6,0.6-1.8,0.4c-11.1-1.9-22.2-3.9-33.4-5.5
		c-4.6-0.7-7.2-2.9-9.1-7c-5.1-11.4-10.5-22.7-16-34.5c-0.9,1.6-1.5,2.8-2.1,4c-5.1,10.1-10.2,20.1-15.2,30.3
		c-1.8,3.8-4.3,5.9-8.6,6.4C151.1,138.5,138.7,140.3,125.5,142.1z"/>
</g>
</svg>
