<?xml version="1.0" encoding="utf-8"?>
<!-- Generator: Adobe Illustrator 21.0.0, SVG Export Plug-In . SVG Version: 6.00 Build 0)  -->
<svg version="1.1" id="Layer_1" xmlns="http://www.w3.org/2000/svg" xmlns:xlink="http://www.w3.org/1999/xlink" x="0px" y="0px"
	 viewBox="0 0 595.3 550" style="enable-background:new 0 0 595.3 550;" xml:space="preserve">
<style type="text/css">
	.st0{fill:#EC3766;}
	.st1{fill:none;}
</style>
<g>
	<path class="st0" d="M280.2,516.2c-70.9,0-141.3,0-212.3,0c0-1.6,0-3,0-4.4c0-20.6,0-41.2,0-61.8c0-19.6,10.2-33.1,29-38.8
		c14.3-4.3,28.6-8.6,42.9-12.9c1.4-0.4,3.6-1.5,3.6-2.2c-0.1-1.6-1.1-3.3-2.2-4.6c-4.5-5.6-9.2-11.2-13.9-16.6
		c-1.1-1.3-2.7-2.7-4.2-3c-14.8-3.1-24.7-14.9-24.8-30.1c-0.1-12.8-0.1-25.6,0-38.4c0.4-38.8,30.3-71.1,69-74.6
		c38.5-3.5,73.9,23.3,81.1,61.4c0.9,4.9,1.2,9.9,1.2,14.9c0.2,12,0.1,24,0,36c-0.1,16.2-9.4,27.5-25.2,30.9
		c-1.3,0.3-2.7,1.5-3.6,2.6c-4.9,5.7-9.7,11.4-14.4,17.2c-0.9,1.1-2.1,2.7-1.9,3.9c0.2,1,2,2.2,3.3,2.6c14.5,4.5,29.1,8.8,43.6,13.1
		c18.3,5.5,28.6,19.3,28.7,38.3c0,20.9,0,41.8,0,62.6C280.2,513.3,280.2,514.5,280.2,516.2z M83.2,500.9c10.3,0,20.1,0,30.5,0
		c0,0,0,9.8,0,0.1c5.2,0,10,0,15.2,0c0,10.1,0,0,0,0c30.4,0,60.4,0,90.9,0c0,0,0,9.8,0,0c5.2,0,9.9,0,15.2,0c0,10-1,0.5-1.2,0
		c10.3,0,21.3-0.1,31.2-0.1c0-18.7,0.3-37.2-0.2-55.6c-0.2-7.5-4.4-14-11.4-16.9c-9.1-3.8-18.7-6.3-28.3-9.5
		c-5.5,19.3-10.9,38-16.4,57.1c-11.9-8.9-23.2-17.4-34.6-25.9c-11.6,8.7-22.9,17.1-34.6,25.9c-5.5-19.3-10.9-38-16.3-57
		c-8.9,2.8-17.7,5-26.1,8.2c-8.6,3.2-13.6,10.1-13.8,19.2C82.8,464.4,83.2,482.4,83.2,500.9z M114,315c4.1-1,8.2-2.5,12.4-3
		c4.4-0.5,8.9-0.2,13.3-0.2c22.7,0,45.5,0,68.2,0c8.9,0,18-1.1,26.6,4c2.1-26-5.1-47.7-27.2-62c-21.8-14.1-44.6-14.1-66.5,0
		C118.9,267.9,111.1,290.8,114,315z M136.3,327.3c0,7.7-0.1,15.2,0,22.8c0.3,19.8,14.6,35.2,34.8,37.4c18,2,36.2-10.9,39.7-29.5
		c1.8-9.9,1.2-20.3,1.7-30.7C186.7,327.3,161.8,327.3,136.3,327.3z M200.1,450.7c3.5-12.3,6.8-24,10.2-35.9c-3-0.9-5.5-1.9-8.1-2.5
		c-0.9-0.2-2.5,0.3-2.9,1.1c-5.1,8.3-10.1,16.7-15.3,25.2C189.4,442.6,194.4,446.4,200.1,450.7z M137.8,414.8
		c3.4,11.9,6.8,23.6,10.3,35.8c5.6-4.2,10.7-8,16-12c-5.1-8.6-10.1-16.9-15.1-25.1c-0.5-0.7-2-1.4-2.8-1.2
		C143.4,412.9,140.7,413.9,137.8,414.8z M159.6,401.8c4.5,7.5,9.4,15.6,14.4,24.1c5.1-8.5,9.9-16.5,14.4-24.1
		C178.9,401.8,169.3,401.8,159.6,401.8z M227.3,329.8c0,8.3,0,16.6,0,25C237.1,348.1,237.1,334.9,227.3,329.8z M120.9,329.1
		c-5.4,3.9-7.8,8.4-7.3,14.2c0.4,5,2.7,8.7,7.3,11.7C120.9,346.2,120.9,338.1,120.9,329.1z"/>
	<path class="st0" d="M280.2,170c-2.2,0-3.8,0-5.4,0c-35.3,0-70.6,0-105.8,0c-16.1,0-25.2-9.2-25.2-25.3c0-28.5,0-57.1,0-85.6
		c0-16.1,9.2-25.4,25.2-25.4c49,0,98,0,147.1,0c15.5,0,24.8,9.5,24.8,25c0,1.6,0,3.2,0,5.4c1.8,0,3.4,0,4.9,0c35.6,0,71.1,0,106.7,0
		c15.5,0,24.8,9.3,24.8,24.9c0,28.7,0,57.4,0,86.1c0,16.1-9.3,25.4-25.3,25.4c-48.9,0-97.8,0-146.6,0c-15.9,0-25.1-9.2-25.1-25.1
		C280.2,173.8,280.2,172.2,280.2,170z M378.7,185.2c24.4,0,48.7,0,73.1,0c7.7,0,10.3-2.5,10.3-10.1c0-28.7,0-57.4,0-86
		c0-7.5-2.4-10-9.9-10c-49,0-98,0-147,0c-7.4,0-9.8,2.3-9.8,9.6c0,28.9,0,57.9,0,86.8c0,7.2,2.5,9.6,9.8,9.6
		C329.7,185.2,354.2,185.2,378.7,185.2z M325.4,64c0.1-1.5,0.2-2.6,0.2-3.6c0.1-9.6-1.8-11.6-11.4-11.6c-48.5,0-96.9,0-145.4,0
		c-7.2,0-9.8,2.5-9.8,9.7c0,28.5,0,57.1,0,85.6c0,8.7,2,10.8,10.6,10.8c35.3,0,70.5,0,105.8,0c1.4,0,2.9,0,4.8,0c0-1.9,0-3.3,0-4.7
		c0-20.9,0-41.7,0-62.6c0-13.8,9.6-23.4,23.3-23.5C310.7,64,317.8,64,325.4,64z"/>
	<path class="st0" d="M507.3,94.2c0,5.3,0,9.9,0,14.9c-4.9,0-9.7,0-15,0c0-4.3-0.1-8.7,0.1-13.1c0-0.6,1.3-1.7,2.1-1.7
		C498.6,94.1,502.7,94.2,507.3,94.2z"/>
	<path class="st0" d="M507.2,124.9c0,5.1,0,9.8,0,14.9c-4.4,0-8.7,0.1-12.9-0.1c-0.7,0-1.9-1.2-1.9-1.8c-0.2-4.3-0.1-8.5-0.1-13
		C497.5,124.9,502.2,124.9,507.2,124.9z"/>
	<path class="st0" d="M507.2,169.8c-5,0-9.7,0-14.9,0c0-4.5-0.1-8.7,0.1-13c0-0.7,1.2-1.8,1.9-1.9c4.3-0.2,8.5-0.1,13-0.1
		C507.2,160.1,507.2,164.8,507.2,169.8z"/>
	<path class="st0" d="M128.4,94.5c0,5.2,0,9.8,0,14.6c-4.9,0-9.6,0-14.6,0c0-4.8,0-9.6,0-14.6C118.7,94.5,123.5,94.5,128.4,94.5z"/>
	<path class="st0" d="M128.4,124.9c0,4.9,0,9.6,0,14.6c-4.9,0-9.7,0-14.6,0c0-4.9,0-9.6,0-14.6C118.5,124.9,123.2,124.9,128.4,124.9
		z"/>
	<path class="st0" d="M113.8,81.2c0-3.5,0-7,0-10.6c4.7,0,9.4,0,14.5,0c0,3.4,0,6.9,0,10.6C123.5,81.2,118.7,81.2,113.8,81.2z"/>
	<path class="st0" d="M310.4,144.4c45.7,0,90.8,0,136.1,0c0,4.9,0,9.7,0,15c-1.4,0-2.8,0-4.3,0c-42.4,0-84.8,0-127.2,0.1
		c-3.7,0-5.1-0.9-4.7-4.7C310.7,151.6,310.4,148.2,310.4,144.4z"/>
	<path class="st0" d="M446.6,117.1c-45.5,0-90.6,0-135.9,0c0-4.9,0-9.7,0-14.7c45.4,0,90.5,0,135.9,0
		C446.6,107.3,446.6,112.1,446.6,117.1z"/>
	<path class="st0" d="M264.8,114.1c0,5,0,9.7,0,14.7c-30.2,0-60.2,0-90.4,0c0-4.9,0-9.7,0-14.7C204.6,114.1,234.5,114.1,264.8,114.1
		z"/>
	<path class="st0" d="M174.3,86.8c0-4.9,0-9.6,0-14.6c30.1,0,60.1,0,90.4,0c0,4.8,0,9.6,0,14.6C234.7,86.8,204.8,86.8,174.3,86.8z"
		/>
	<g>
		<path class="st1" d="M393.7,311.7c13.2,0.2,24.5-4.5,33.6-14c1.4-1.4,2.4-3.2,3.6-4.9c1.6,1.5,2.3,2.1,3,2.8
			c10.4,11.6,23.3,16.6,38.8,16.2c6.3-0.1,12.6,1.4,19.3,2.3c3.2-26.1-8.6-50.5-31-63c-21.6-12-48-9.7-67.4,5.9
			c-16.9,13.6-27.2,40.8-21.8,58.5C378.6,311.4,386.2,311.6,393.7,311.7z"/>
		<path class="st1" d="M384.7,401.9c4.7-1,9.3-2.6,13.9-4.1c1.1-0.4,2.6-1.4,2.6-2.3c0.1-1.2-0.7-2.9-1.6-3.6
			c-6.2-4.9-11.2-10.8-15-17.8c-0.5-0.8-1.3-1.8-2.2-2c-4.4-1.4-8.8-2.7-13.4-4.1c-2.8,9.8-7.8,18.8-15.7,26.7
			c7.3,4.1,14.6,6.2,22.2,7.2C378.5,402.2,381.7,402.4,384.7,401.9z"/>
		<path class="st1" d="M378.5,354.8c0-8.6,0-16.8,0-25.2C368.6,334.7,368.6,348.1,378.5,354.8z"/>
		<path class="st1" d="M485,329.6c0,8.5,0,16.7,0,25.2C494.6,347.8,494.6,335.4,485,329.6z"/>
		<path class="st1" d="M479.1,373.2c-3.9,7.5-9.2,13.8-15.9,19.1c-0.8,0.7-0.6,4.6,0,4.8c5.9,2.1,12,4.9,18.1,5.1
			c9.8,0.3,19.4-2.4,28.7-7.6c-8-7.9-12.9-17-15.7-26.7c-4.6,1.4-9,2.6-13.3,4C480.3,372.2,479.4,372.6,479.1,373.2z"/>
		<path class="st1" d="M446,401.8c-9.8,0-19.3,0-28.8,0c4.5,7.6,9.3,15.6,14.4,24C436.7,417.4,441.4,409.5,446,401.8z"/>
		<path class="st1" d="M431.6,314.3c-11,8.4-23.4,12.6-37.7,12.6c0,9-0.4,17.5,0.1,25.9c1.1,17.7,15.1,32.2,32.5,34.4
			c17.8,2.3,34.9-8.1,40.7-25c4-11.5,1.5-23.4,2.1-35.3C455.1,327,442.7,322.7,431.6,314.3z"/>
		<path class="st1" d="M405.6,450.6c5.6-4.2,10.7-8,16-12c-5.5-9.1-10.8-17.9-16.2-26.9c-3.3,1-6.4,1.9-10.1,3
			C398.8,426.8,402.2,438.5,405.6,450.6z"/>
		<path class="st1" d="M467.9,414.7c-3.1-0.9-5.8-1.9-8.7-2.6c-0.6-0.2-1.9,0.3-2.2,0.9c-5.2,8.4-10.2,16.9-15.4,25.5
			c5.4,4.1,10.5,7.9,16,12C461.2,438.4,464.5,426.7,467.9,414.7z"/>
		<path class="st1" d="M439.6,456C439.6,456,439.6,456.1,439.6,456l26.6,19.8C457.2,469.1,448.6,462.8,439.6,456z"/>
		<path class="st0" d="M537.7,447.8c-0.3-17-8.9-28.9-24.7-35.4c-0.7-0.3-1.3-0.7-1.1-0.6c7.5-5.5,15.2-11.1,23.5-17.2
			c-4-2.7-6.6-4.4-9.1-6.2c-12.3-8.7-18.5-20.7-18.9-35.7c-0.2-6.9,0.1-13.7-0.1-20.6c-0.2-13,0.5-26.2-1-39.1
			c-4.6-40.6-46.1-70.9-86.4-63.7c-38.3,6.9-63.8,37.2-64,76.2c-0.1,14.8-0.1,29.6,0,44.4c0.1,17.3-6.7,30.7-21.3,40.1
			c-1.9,1.2-3.7,2.5-6.7,4.6c8.5,6.1,16.1,11.7,23.6,17.1c-18.9,7.3-26.7,21.9-26.2,42.2c0.5,19.2,0.1,38.5,0.1,57.8
			c0,1.4,0,2.8,0,4.4c1.5,0.1,2.4,0.2,3.3,0.2c68.4,0,136.8,0,205.3,0.1c2.7,0,3.8-0.6,3.8-3.6C537.7,491.2,538.1,469.5,537.7,447.8
			z M510,394.7c-9.3,5.2-18.8,7.9-28.7,7.6c-6.1-0.2-12.2-3.1-18.1-5.1c-0.5-0.2-0.8-4.1,0-4.8c6.6-5.3,12-11.6,15.9-19.1
			c0.3-0.6,1.2-1,1.9-1.3c4.3-1.3,8.7-2.6,13.3-4C497.1,377.7,502,386.8,510,394.7z M467.3,362.2c-5.8,16.9-22.9,27.3-40.7,25
			c-17.4-2.2-31.4-16.7-32.5-34.4c-0.5-8.4-0.1-16.9-0.1-25.9c14.2,0.1,26.6-4.2,37.7-12.6c11.1,8.4,23.5,12.6,37.8,12.6
			C468.8,338.9,471.3,350.7,467.3,362.2z M405.5,411.6c5.4,9,10.7,17.8,16.2,26.9c-5.3,4-10.4,7.8-16,12
			c-3.5-12.1-6.8-23.8-10.3-35.9C399.1,413.5,402.1,412.6,405.5,411.6z M417.3,401.8c9.5,0,19,0,28.8,0c-4.6,7.7-9.3,15.6-14.4,24
			C426.6,417.4,421.8,409.4,417.3,401.8z M457.1,413c0.3-0.6,1.6-1.1,2.2-0.9c2.8,0.7,5.6,1.6,8.7,2.6c-3.4,12-6.8,23.7-10.2,35.9
			c-5.5-4.1-10.6-7.9-16-12C446.8,430,451.9,421.5,457.1,413z M485,354.7c0-8.4,0-16.6,0-25.2C494.6,335.4,494.6,347.8,485,354.7z
			 M393.6,257c19.4-15.6,45.8-17.9,67.4-5.9c22.4,12.5,34.2,36.9,31,63c-6.6-0.8-13-2.4-19.3-2.3c-15.5,0.4-28.5-4.6-38.8-16.2
			c-0.6-0.7-1.4-1.3-3-2.8c-1.2,1.7-2.2,3.4-3.6,4.9c-9.2,9.5-20.4,14.2-33.6,14c-7.5-0.1-15.1-0.4-21.9,3.8
			C366.4,297.8,376.7,270.6,393.6,257z M378.5,329.7c0,8.3,0,16.5,0,25.2C368.6,348.1,368.6,334.7,378.5,329.7z M369,368
			c4.6,1.4,9.1,2.6,13.4,4.1c0.9,0.3,1.7,1.2,2.2,2c3.8,7,8.8,12.9,15,17.8c1,0.8,1.7,2.4,1.6,3.6c0,0.8-1.6,1.9-2.6,2.3
			c-4.6,1.5-9.2,3.1-13.9,4.1c-2.9,0.6-6.1,0.3-9.1,0c-7.6-0.9-14.9-3-22.2-7.2C361.2,386.8,366.2,377.8,369,368z M522.5,500
			c0,0.2-0.2,0.5-0.4,1c-3.8,0-7.6,0-11.5,0l-0.5,0H352.7l0.5,0c-4.1,0-8.1,0-12.2,0c-0.1-0.7-0.2-1.3-0.2-2c0-17.2-0.1-34.5,0-51.7
			c0.1-8,3.4-15.1,10.5-18.3c9.3-4.3,19.3-6.9,29.4-10.3c5.6,19.5,10.9,38,16.4,57.2c9-6.7,17.6-13.2,26.7-20c0,0,0,0,0,0l7.8-5.8
			l8,5.9c0,0,0,0,0,0c9,6.7,17.6,13.1,26.6,19.8c5.5-19.2,10.9-37.9,16.3-57c9.2,2.9,18.2,5.1,26.8,8.5c8.3,3.3,12.9,10.3,13.1,19.2
			C522.8,464.4,522.6,482.2,522.5,500z"/>
	</g>
</g>
</svg>
