<?xml version="1.0" encoding="utf-8"?>
<!-- Generator: Adobe Illustrator 21.0.0, SVG Export Plug-In . SVG Version: 6.00 Build 0)  -->
<svg version="1.1" id="Layer_1" xmlns="http://www.w3.org/2000/svg" xmlns:xlink="http://www.w3.org/1999/xlink" x="0px" y="0px"
	 viewBox="0 0 595.3 550" style="enable-background:new 0 0 595.3 550;" xml:space="preserve">
<style type="text/css">
	.st0{fill:#EC3766;}
</style>
<g>
	<path class="st0" d="M231,287.3c-4.2,0-7.8,0-11.4,0c-9.5,0-11.2-1.6-11.5-11.1c-12.5-3.1-25.1-6.3-37.7-9.5
		c-2.9-0.7-5.8-1.4-8.7-2.2c-5.4-1.4-7.1-3.7-7.1-9.2c0-33.7-0.1-67.4,0.1-101.1c0-4.3-1.3-5.6-5.3-6.6c-31.6-8-63-16.2-94.5-24.4
		c-5.1-1.3-7.3-3.8-7.2-8c0.1-4,2.2-6.3,7.1-7.6C127.6,88.8,200.5,70,273.4,51.2c2.1-0.5,4.6-0.6,6.8,0
		c72.6,18.7,145.2,37.5,217.8,56.3c5.8,1.5,8.1,3.8,8,8.1c-0.1,4.2-2.3,6.4-7.9,7.8c-7.3,1.9-7.3,1.9-7.3,9.5
		c0,33.8-0.1,67.6,0.1,101.5c0,3.4,0.9,7,2.3,10c3.4,7.7,7.3,15.1,11.2,22.6c1.8,3.4,1.9,6.5,0.1,10c-4.7,9.2-9.3,18.4-13.8,27.7
		c-1.6,3.3-3.8,5.6-7.7,5.6c-3.7-0.1-5.8-2.3-7.4-5.5c-4.6-9.4-9.3-18.7-14-28c-1.6-3.2-1.8-6.2,0-9.3c0.4-0.7,0.7-1.5,1.1-2.2
		c4.3-8.6,10.2-16.9,12.3-26c2.1-9.1,0.5-19.2,0.5-28.8c0-25.4,0-50.8,0-76.2c0-1.5,0-2.9,0-5c-7.2,1.9-13.9,3.6-20.6,5.3
		c-17.3,4.5-34.7,9-52,13.3c-3,0.7-4,1.9-4,5.1c0.1,33.7,0.1,67.4,0.1,101.1c0,7.1-1.5,9.1-8.4,10.8c-14.2,3.6-28.4,7.1-42.6,10.7
		c-0.9,0.2-1.8,0.5-2.6,0.8c-0.1,2.1,0.2,4.1-0.4,5.8c-1.1,3.5-3.8,5.1-7.5,5.1c-4.9,0-9.7,0-15,0c0,4.8-0.1,9.1,0,13.4
		c0.1,4-0.8,7.4-4.8,9c-4,1.5-7-0.3-9.8-3.1c-10.2-10.4-20.5-20.6-31.1-31.2c-1.1,1.1-2.2,2-3.2,3c-9.4,9.4-18.9,18.8-28.2,28.3
		c-2.8,2.9-5.8,4.6-9.8,3.1c-4-1.6-4.9-5-4.7-9C231.2,296.5,231,292.3,231,287.3z M467.3,115.6c-1.9-0.6-2.9-1-3.9-1.3
		c-61-15.8-122.1-31.6-183.1-47.3c-2.1-0.5-4.6-0.6-6.7,0c-56.5,14.5-112.9,29.1-169.3,43.7c-5.7,1.5-11.3,2.9-17,4.4
		c1.3,1,2.4,1.3,3.6,1.6c60.5,15.7,121,31.4,181.5,46.9c2.8,0.7,6.2,0.7,9.1-0.1c50-12.8,100-25.8,150.1-38.7
		C443.1,121.8,454.8,118.8,467.3,115.6z M170.1,250.9c15.5,3.9,30.9,7.7,46.3,11.7c3.5,0.9,5.7,0.3,8.1-2.4
		c3.1-3.6,6.4-7.1,10.1-10.1c4.3-3.5,6.5-7.3,4.2-12.8c-0.4-0.9-0.3-2.2-0.2-3.2c0.5-15.4,7.2-27.3,21.1-34.2
		c14-7,27.8-5.8,40.2,3.7c12.2,9.4,17,22.1,14.4,37.5c-0.3,1.6,0,3.9,0.9,4.9c5.1,5.5,10.4,10.7,15.8,15.9c0.8,0.8,2.4,1.5,3.5,1.2
		c16.3-4,32.6-8.1,49-12.2c0-32.6,0-65,0-97.7c-1.3,0.3-2.4,0.5-3.4,0.8c-33.2,8.6-66.4,17.2-99.7,25.6c-2.2,0.6-4.9,0.6-7.1,0
		c-23.9-6-47.8-12.3-71.7-18.4c-10.4-2.7-20.7-5.3-31.4-8.1C170.1,185.8,170.1,218.1,170.1,250.9z M276.8,211.1
		c-12.7,0-22.8,10-22.9,22.6c-0.1,12.8,10.2,23.2,22.8,23.2c12.5,0,22.8-10.2,22.9-22.7C299.8,221.3,289.7,211.1,276.8,211.1z
		 M305.7,259.4c-4.2,3.2-8.6,6.6-12,9.1c4.6,4.6,9.2,9.2,13.1,13.1c0.8-1.9,1.2-5.4,3.2-7.3c1.9-1.9,5.4-2.1,7.8-2.9
		C314,267.7,309.8,263.5,305.7,259.4z M246.7,282.3c4.5-4.5,9.2-9.2,13.5-13.5c-3.9-3-8.3-6.4-11.8-9.1c-4.2,4.1-8.5,8.2-12.7,12.2
		C244.4,273,244.4,273,246.7,282.3z M483.2,285.5c2.2-4.5,4.1-8.1,5.8-11.7c0.4-0.9,0.6-2.2,0.2-3c-1.8-3.9-3.8-7.6-6.1-12.1
		c-2.3,4.6-4.2,8.4-6.1,12.2c-0.3,0.6-0.4,1.6-0.1,2.2C478.9,277,480.8,280.9,483.2,285.5z"/>
	<path class="st0" d="M360.9,440.3c0,23.1,0,45.6,0,68.4c-5.1,0-9.9,0-15.2,0c0-22.6,0-45.2,0-68.1c-33.2,0-66,0-99.3,0
		c0,4.9,0,9.7,0,14.7c-5.3,0-10.1,0-15.3,0c0-8.9,0.1-17.6,0-26.2c-0.1-5.8,0.1-11.7-0.7-17.5c-1.6-11.4-11.4-21.6-22-23.4
		c-0.1,1.3-0.2,2.6-0.2,3.9c0,26.5-0.1,53,0.1,79.5c0,2.1,1.4,4.4,2.6,6.3c0.8,1.4,2.1,2.6,3.4,3.5c10.2,6.7,10.1,16.6,8.6,27.3
		c-4.6,0-9.3,0-14.3,0c-0.1-1-0.5-2-0.3-3c1.1-6.6-1.3-11.6-6.6-15.3c-7.4-5.2-9.6-12.2-8.9-21.2c0.7-9.4,0.2-18.9,0.2-28.9
		c-1.8,0-3.3,0-4.7,0c-18.3,0-36.7,0-55,0c-23.2,0-39.7-16.6-39.7-39.9c0-16.7,0-33.4,0-50.1c0-6.7,2.7-9.4,9.4-9.4
		c40.9,0,81.8,0,122.7-0.1c2,0,4.4-0.9,6.1-2.2c8.2-6.5,18.8-7.1,27.7-1.2c0.8,0.5,1.6,1,2.3,1.5c11.9-7.6,19.6-7.6,30.6,0.1
		c10.1-7.6,20.4-7.7,30.6,0c12.2-8,19.8-7.7,31.3,0.9c1.1,0.9,3,1.1,4.5,1.1c20.8,0.1,41.6,0,62.3,0.1c22.8,0,39.4,16.5,39.4,39.3
		c0,16.8,0,33.7,0,50.5c0,6.9-2.7,9.6-9.6,9.6c-28.1,0-56.2,0-84.3,0C364.6,440.3,363,440.3,360.9,440.3z M246.2,424.7
		c66.5,0,132.4,0,198.5,0c0.1-1.4,0.2-2.6,0.2-3.8c0-13.6,0-27.2,0-40.7c-0.1-14.4-9.6-23.9-24.1-23.9c-18.6,0-37.2,0-55.8,0
		c-1.3,0-2.6,0.1-3.7,0.2c-0.3,0.5-0.4,0.7-0.4,0.8c0,10,0,20.1-0.2,30.1c-0.2,9.8-6.7,18.4-16.1,21.2c-8.1,2.4-15.5,0.6-22-4.7
		c-10.4,7.8-20.7,7.5-30.8,0c-4.6,3.7-9.5,5.7-15.2,5.7c-5.8,0-10.7-2.3-14.4-5c-5.9,2.2-11,4.1-16.2,6.1
		C246.2,414.8,246.2,419.5,246.2,424.7z M108.9,356.4c-0.1,1.5-0.2,2.7-0.2,3.9c0,13.4,0,26.9,0,40.3c0,14.7,9.5,24.2,24.2,24.2
		c18.6,0,37.2,0,55.8,0c1.3,0,2.6-0.1,4-0.2c0-15.2,0-29.8,0-44.5c0-6.1,3.1-9.4,9.1-8.6c6,0.8,11.8,2.7,17.7,4.1
		c1.1,0.3,2.1,0.8,3.3,1.3c0-7.2,0-13.9,0-20.7C184.9,356.4,147.2,356.4,108.9,356.4z M315.1,371.7c0-4.9,0.1-9.8,0-14.6
		c-0.1-5.1-3.4-8.6-7.9-8.5c-4.3,0.1-7.4,3.5-7.5,8.5c-0.1,9.6-0.1,19.3,0,28.9c0,4.9,3.1,8.4,7.4,8.5c4.4,0.1,7.8-3.4,7.9-8.5
		C315.1,381.2,315.1,376.4,315.1,371.7z M253.9,371.9c0-5,0.1-10,0-15.1c-0.1-4.9-3.4-8.3-7.7-8.3c-4.3,0-7.6,3.4-7.7,8.3
		c-0.1,9.8-0.1,19.5,0,29.3c0,4.9,3.3,8.3,7.6,8.3c4.3,0,7.6-3.5,7.7-8.3C254,381.4,253.9,376.6,253.9,371.9z M330.4,370.9
		c0,5-0.1,10,0,15c0.1,5.1,3,8.3,7.4,8.4c4.4,0.1,7.6-3.2,7.7-8.2c0.1-9.9,0.1-19.8,0-29.7c0-4.7-3.2-7.9-7.4-8
		c-4.4-0.1-7.6,3.2-7.7,8.2C330.3,361.4,330.4,366.2,330.4,370.9z M269.2,371.6c0,4.6,0,9.2,0,13.8c0,0.3,0,0.5,0,0.8
		c0.2,4.9,3.3,8.3,7.7,8.2c4.2-0.1,7.4-3.3,7.4-8c0.1-9.9,0.1-19.8,0-29.7c0-4.9-3.3-8.3-7.7-8.2c-4.3,0.1-7.3,3.3-7.4,8
		C269.2,361.6,269.3,366.6,269.2,371.6z"/>
	<path class="st0" d="M169.6,325.4c-5.1,0-9.8,0-14.8,0c0-5,0-9.8,0-14.8c4.8,0,9.7,0,14.8,0C169.6,315.5,169.6,320.2,169.6,325.4z"
		/>
	<path class="st0" d="M124.3,310.5c5,0,9.7,0,14.6,0c0,4.9,0,9.6,0,14.7c-4.7,0-9.5,0-14.6,0C124.3,320.5,124.3,315.7,124.3,310.5z"
		/>
	<path class="st0" d="M93.7,310.6c5.1,0,9.9,0,14.9,0c0,5,0,9.7,0,14.6c-5,0-9.8,0-14.9,0C93.7,320.5,93.7,315.7,93.7,310.6z"/>
</g>
</svg>
