<?xml version="1.0" encoding="utf-8"?>
<!-- Generator: Adobe Illustrator 21.0.0, SVG Export Plug-In . SVG Version: 6.00 Build 0)  -->
<svg version="1.1" id="Layer_1" xmlns="http://www.w3.org/2000/svg" xmlns:xlink="http://www.w3.org/1999/xlink" x="0px" y="0px"
	 viewBox="0 0 595.3 550" style="enable-background:new 0 0 595.3 550;" xml:space="preserve">
<style type="text/css">
	.st0{fill:#EC3766;}
	.st1{fill:#EC3766;stroke:#EC3766;stroke-width:0.75;stroke-miterlimit:10;}
</style>
<g>
	<path class="st0" d="M270.1,477.8c0,10.8,0,21,0,31.1c0,8.4-4.2,12.6-12.6,12.7c-13.5,0-27.1,0-40.6,0c-8.3,0-12.5-4.3-12.5-12.7
		c0-10.2,0-20.3,0-31c-9.1,0-17.8,0.1-26.6,0c-7.2-0.1-11.6-4.5-11.7-11.7c-1-44.4-18.7-81.2-51.4-110.8
		C83.4,326.9,62,292.5,54.9,250.6c-13.2-78.2,12.8-141.6,76.6-188c61.4-44.7,146-45.2,208.3-3.7c4.1,2.7,6.9,6,6.6,11.1
		c-0.5,8.8-9.4,12.7-17.6,8.2c-10.2-5.6-20.3-11.8-31.1-16.1C200.8,23.7,91.4,85.6,75.4,188.8c-9.1,58.8,9.1,109.3,53.2,149.6
		c21.8,19.8,38.4,42.9,48.8,70.4c1,2.5,2.1,3.4,4.9,3.4c36.6-0.1,73.3-0.1,109.9,0c3.5,0,4.3-1.8,5.2-4.3
		c9.6-26.5,25.3-49,46.3-67.8c4.1-3.7,8.7-4.3,13-1.9c4.1,2.3,6.6,6.9,5.5,11.5c-0.7,2.6-2.3,5.4-4.3,7.2
		c-25.3,22.8-41.1,50.8-47.1,84.3c-1.4,8-1.8,16.3-2.3,24.5c-0.4,7.7-4.5,12-12.3,12.1C287.7,477.9,279.2,477.8,270.1,477.8z
		 M289.4,434.3c-34.9,0-69.5,0-104.4,0c0.9,7.3,1.8,14.3,2.7,21.4c33.3,0,66.2,0,99.2,0C287.7,448.5,288.5,441.5,289.4,434.3z
		 M247.9,499.5c0-7.3,0-14.4,0-21.3c-7.3,0-14.4,0-21.4,0c0,7.3,0,14.2,0,21.3C233.7,499.5,240.6,499.5,247.9,499.5z"/>
	<path class="st0" d="M377.2,242.5c50.9,0,101.8,0,152.7,0c10,0,13.8,3.8,13.8,13.7c0,16.7,0,33.4,0,50.1c0,8.6-4.2,12.8-12.9,12.8
		c-102.4,0-204.8,0-307.2-0.1c-3,0-6.4-1-8.9-2.7c-13.1-8.8-26-18-38.8-27.1c-6.2-4.4-5.8-12.2,0.8-17.2c5.2-3.9,10.7-7.5,16-11.3
		c7-4.9,14-9.6,20.8-14.8c3.4-2.6,6.8-3.4,11-3.4C275.4,242.6,326.3,242.5,377.2,242.5z M466.9,264.4c-2.2,0-4,0-5.8,0
		c-73.8,0-147.7,0.2-221.5-0.2c-10.1-0.1-18.6,1.6-26.2,8.4c-3.4,3-7.5,5.4-11.6,8.3c7.2,5,13.5,9.7,20.2,14c2.1,1.4,5,2.3,7.5,2.3
		c77.6,0.1,155.3,0.1,232.9,0.1c1.5,0,2.9,0,4.6,0C466.9,286.2,466.9,275.6,466.9,264.4z M521.6,264.7c-11,0-21.7,0-32.3,0
		c0,11,0,21.7,0,32.3c10.9,0,21.5,0,32.3,0C521.6,286.2,521.6,275.7,521.6,264.7z"/>
	<path class="st0" d="M324,210.3c-31.3,0-62.6,0-93.9,0c-2,0-4,0-5.9-0.4c-5.4-1.1-9-5.8-8.7-11.2c0.3-5.4,4.4-9.7,9.9-10.2
		c1.8-0.2,3.6-0.1,5.5-0.1c61.7,0,123.4,0,185.1,0c18.2,0,32.3-9.4,38-25.1c6.2-16.9-0.2-36-15.3-45.6c-15.2-9.6-34.4-7.4-47.4,5.2
		c-1.9,1.8-4.4,3.3-6.9,3.9c-5.1,1.3-10.2-1.1-12.4-5.4c-2.3-4.4-1.6-8.7,2.2-12.9c18.6-20.5,51.9-24.6,76-9.4
		c22.6,14.3,33.1,41.8,25.8,67.5c-7.6,26.3-30.5,43.6-58.8,43.7C386,210.4,355,210.3,324,210.3z"/>
	<path class="st1" d="M220.3,158.3c0-5.8,0-10.9,0-16.4c5.9,0,11.6,0,18,0c0,4.9,0.1,9.6-0.1,14.4c0,0.7-1.5,1.8-2.4,1.8
		C230.8,158.4,225.8,158.3,220.3,158.3z"/>
	<path class="st1" d="M266.8,158c0-5.4,0-10.7,0-16.1c5.9,0,11.6,0,17.6,0c0,5.5,0,10.7,0,16.1C278.5,158,272.8,158,266.8,158z"/>
	<path class="st1" d="M330,158.3c-5.3,0-10.1,0.1-15-0.1c-1-0.1-2.7-1.5-2.8-2.4c-0.3-4.5-0.1-9-0.1-13.9c6.1,0,11.8,0,17.9,0
		C330,147.3,330,152.5,330,158.3z"/>
</g>
</svg>
